<svg xmlns="http://www.w3.org/2000/svg" viewBox="0 0 120 120" width="120" height="120">
  <rect width="120" height="120" rx="22" fill="#25D366"/>
  <path fill="#ffffff" d="M60 22c-21 0-38 17-38 38 0 7 2 13 5 19l-5 19 19-5c5 3 12 5 19 5 21 0 38-17 38-38s-17-38-38-38zm0 70c-6 0-12-2-17-5l-1-1-11 3 3-11-1-1c-3-5-5-11-5-17 0-17 14-31 31-31s31 14 31 31-14 32-31 32zm17-23c-1-1-6-3-7-3-1 0-2-1-3 1l-3 4c-1 1-2 1-3 0-5-2-9-6-11-10-1-1 0-2 1-3l2-3c0-1 0-2 0-3 0-1-3-6-3-8-1-2-2-2-3-2h-2c-1 0-2 0-3 1-1 2-4 4-4 9 0 6 4 11 5 12s8 12 19 17c3 1 5 2 7 2 2 1 5 1 7 0 2-1 5-3 6-5 1-3 1-5 0-5z"/>
</svg>
